# xmcd
#
# Track frame offsets:
#	150
#	12547
#	25415
#	38840
#	52010
#	66607
#	78897
#	92060
#	101525
#	112522
#	124195
#	134537
#	148397
#	159490
#	171310
#
# Disc length: 2591
#
# Revision: 1
# Processed by: cddbd v1.5.1PL0 Copyright (c) Steve Scherf et al.
# Submitted via: dBpowerAMP V4.0
# Normalized: r0:TDELIM( - )
#
DISCID=d30a1d0f
DTITLE=Various Artist - Let's go Soul
DYEAR=1900
DGENRE=Blues
TTITLE0=Otis Redding - Sitting on the dock of the bay
TTITLE1=Percy Sledge - When a man love a woman
TTITLE2=Aretha Franklin - Don't play that song
TTITLE3=Ben E. King - Stand by me
TTITLE4=Otis Redding - I've been loving you too long
TTITLE5=Aretha Franklin - You make me feel like
TTITLE6=Booker T. - Green onions
TTITLE7=Otis Redding - Respect
TTITLE8=Wilson Pickett - Land of 1000 dances
TTITLE9=Sam and dave - Hold on I'm coming
TTITLE10=Aretha Franklin - Think
TTITLE11=Eddie Floyd - Knock on wood
TTITLE12=Wilson Pickett - In the midnight hours
TTITLE13=Sam and Dave - Soul Man
TTITLE14=Ray Charles - What'd I Say
EXTD=
EXTT0=
EXTT1=
EXTT2=
EXTT3=
EXTT4=
EXTT5=
EXTT6=
EXTT7=
EXTT8=
EXTT9=
EXTT10=
EXTT11=
EXTT12=
EXTT13=
EXTT14=
PLAYORDER=
